<?xml version="1.0" encoding="UTF-8" standalone="no"?>
<svg
   xmlns:dc="http://purl.org/dc/elements/1.1/"
   xmlns:cc="http://creativecommons.org/ns#"
   xmlns:rdf="http://www.w3.org/1999/02/22-rdf-syntax-ns#"
   xmlns:svg="http://www.w3.org/2000/svg"
   xmlns="http://www.w3.org/2000/svg"
   xmlns:sodipodi="http://sodipodi.sourceforge.net/DTD/sodipodi-0.dtd"
   xmlns:inkscape="http://www.inkscape.org/namespaces/inkscape"
   width="53.275841mm"
   height="8.4451885mm"
   viewBox="0 0 53.275841 8.4451885"
   version="1.1"
   id="svg8"
   inkscape:version="1.0.1 (3bc2e813f5, 2020-09-07)"
   sodipodi:docname="logo.svg">
  <defs
     id="defs2">
    <rect
       x="22.748056"
       y="48.523472"
       width="114.72616"
       height="43.58556"
       id="rect835" />
    <rect
       x="22.748056"
       y="48.523472"
       width="114.72616"
       height="43.58556"
       id="rect835-3" />
    <rect
       x="22.748056"
       y="48.523472"
       width="114.72616"
       height="43.58556"
       id="rect848" />
    <rect
       x="22.748056"
       y="48.523472"
       width="114.72616"
       height="43.58556"
       id="rect835-7" />
    <rect
       x="22.748056"
       y="48.523472"
       width="114.72616"
       height="43.58556"
       id="rect877" />
  </defs>
  <sodipodi:namedview
     id="base"
     pagecolor="#ffffff"
     bordercolor="#666666"
     borderopacity="1.0"
     inkscape:pageopacity="0.0"
     inkscape:pageshadow="2"
     inkscape:zoom="2.8284271"
     inkscape:cx="100.86067"
     inkscape:cy="-1.1644836"
     inkscape:document-units="mm"
     inkscape:current-layer="layer1"
     inkscape:document-rotation="0"
     showgrid="false"
     inkscape:window-width="1280"
     inkscape:window-height="1381"
     inkscape:window-x="1280"
     inkscape:window-y="0"
     inkscape:window-maximized="0"
     objecttolerance="20"
     inkscape:pagecheckerboard="true" />
  <metadata
     id="metadata5">
    <rdf:RDF>
      <cc:Work
         rdf:about="">
        <dc:format>image/svg+xml</dc:format>
        <dc:type
           rdf:resource="http://purl.org/dc/dcmitype/StillImage" />
        <dc:title></dc:title>
      </cc:Work>
    </rdf:RDF>
  </metadata>
  <g
     inkscape:label="Capa 1"
     inkscape:groupmode="layer"
     id="layer1"
     style="display:inline"
     transform="translate(-22.737464,-50.869505)">
    <g
       aria-label="APODWeb"
       transform="translate(0.64517444,0.63471377)"
       id="text833-5"
       style="font-style:normal;font-weight:normal;font-size:10.5833px;line-height:1.25;font-family:sans-serif;letter-spacing:0px;word-spacing:0px;white-space:pre;shape-inside:url(#rect835-7);display:inline;fill:#936abe;fill-opacity:1;stroke:none">
      <path
         d="m 30.018774,58.510647 h -2.666992 q 0.211666,-0.15875 0.211666,-0.455082 0,-0.116416 -0.03175,-0.211666 L 27.108366,56.53157 q -0.296332,0.190499 -0.465665,0.264582 -0.349249,0.15875 -0.677331,0.15875 -0.201083,0 -0.592665,-0.09525 -0.349249,-0.105833 -0.582081,-0.105833 -0.529165,0 -0.666748,0.455082 L 23.986293,57.6534 q -0.02117,0.105833 -0.02117,0.137583 0,0.338665 0.507999,0.719664 h -1.735661 q 0.592664,-0.486832 0.709081,-0.857247 l 2.02141,-6.551063 h 1.883827 l 2.190743,6.741562 q 0.127,0.380999 0.476249,0.666748 z M 26.8967,55.885989 25.711371,52.128917 24.420208,56.245821 q 0.359832,-0.253999 0.857247,-0.253999 0.08467,0 0.179917,0.02117 0.105833,0.01058 0.222249,0.03175 0.518582,0.127 0.656164,0.127 0.275166,0 0.560915,-0.285749 z"
         style="font-style:normal;font-variant:normal;font-weight:normal;font-stretch:normal;font-family:Klarissa;-inkscape-font-specification:Klarissa;fill:#936abe;fill-opacity:1"
         id="path996" />
      <path
         d="m 37.067237,52.689832 q 0,0.920747 -0.96308,1.375829 -0.02117,0.01058 -0.518582,0.169333 -0.497415,0.158749 -1.460495,0.465665 -1.227663,0.391582 -1.650995,1.02658 v 2.11666 q 0,0.402165 0.328082,0.666748 h -2.666991 q 0.328082,-0.253999 0.328082,-0.666748 v -6.074814 q 0,-0.402165 -0.328082,-0.666748 h 4.635485 q 1.12183,0 1.555745,0.1905 0.740831,0.328082 0.740831,1.396995 z m -2.434159,0 q 0,-0.571498 -0.391582,-0.86783 -0.328082,-0.296333 -0.920747,-0.296333 h -0.846664 v 3.460739 q 0.09525,-0.09525 1.280579,-0.952497 0.878414,-0.634998 0.878414,-1.344079 z"
         style="font-style:normal;font-variant:normal;font-weight:normal;font-stretch:normal;font-family:Klarissa;-inkscape-font-specification:Klarissa;fill:#936abe;fill-opacity:1"
         id="path998" />
      <path
         d="m 44.708368,54.827659 q 0,1.640411 -0.99483,2.730491 -1.02658,1.12183 -2.645825,1.12183 -1.619244,0 -2.645825,-1.12183 -0.973663,-1.100663 -0.973663,-2.730491 0,-1.629828 0.99483,-2.719908 1.02658,-1.15358 2.624658,-1.15358 1.608662,0 2.645825,1.132413 0.99483,1.09008 0.99483,2.741075 z m -2.285992,1.756827 v -3.513655 q 0,-0.719664 -0.285749,-1.164163 -0.338666,-0.529165 -1.02658,-0.529165 -1.354663,0 -1.354663,1.693328 v 3.513655 q 0,1.693328 1.354663,1.693328 1.312329,0 1.312329,-1.693328 z"
         style="font-style:normal;font-variant:normal;font-weight:normal;font-stretch:normal;font-family:Klarissa;-inkscape-font-specification:Klarissa;fill:#936abe;fill-opacity:1"
         id="path1000" />
      <path
         d="m 52.455326,54.912325 q 0,0.857247 -0.253999,1.534579 -0.253999,0.666747 -0.730248,1.132413 -0.476248,0.455081 -1.164163,0.698497 -0.687914,0.232833 -1.545161,0.232833 h -3.619489 q 0.328082,-0.253999 0.328082,-0.666748 v -6.074814 q 0,-0.402165 -0.328082,-0.666748 h 3.598322 q 1.746245,0 2.730491,1.02658 0.984247,1.015997 0.984247,2.783408 z m -2.264826,0 q 0,-3.376073 -1.883827,-3.376073 h -0.836081 l 0.01058,6.529896 h 0.793748 q 1.05833,0 1.545162,-1.121829 0.370415,-0.857248 0.370415,-2.031994 z"
         style="font-style:normal;font-variant:normal;font-weight:normal;font-stretch:normal;font-family:Klarissa;-inkscape-font-specification:Klarissa;fill:#936abe;fill-opacity:1"
         id="path1002" />
      <path
         d="m 63.049204,52.901498 q 0,0.624415 -0.592665,1.756828 -0.243416,0.423332 -0.486832,0.836081 -0.232832,0.412748 -0.476248,0.83608 -0.550332,0.96308 -0.550332,1.608662 0,0.338665 0.296333,0.571498 h -2.666992 q 0.264583,-0.190499 0.264583,-0.518582 0,-0.04233 -0.01058,-0.07408 0,-0.03175 -0.01058,-0.07408 l -0.846664,-2.910407 -0.941913,2.92099 q 0,0.380999 0.338665,0.656165 h -2.666991 q 0.264582,-0.190499 0.264582,-0.518582 0,-0.04233 -0.01058,-0.07408 0,-0.03175 -0.01058,-0.07408 l -1.767412,-6.074814 q -0.126999,-0.423332 -0.412748,-0.666748 h 2.677575 q -0.243416,0.1905 -0.243416,0.497415 0,0.08467 0.02117,0.169333 l 1.502829,5.460983 0.99483,-3.164407 -0.666748,-2.296576 q -0.126999,-0.423332 -0.433915,-0.666748 h 2.698741 q -0.253999,0.211666 -0.253999,0.497415 0,0.09525 0.03175,0.169333 l 1.471079,5.344566 q 0.05292,-0.211666 0.201082,-0.645581 0.148167,-0.433915 0.412749,-1.09008 0.380999,-0.96308 0.380999,-1.820327 0,-0.634998 -0.296333,-1.12183 -0.370415,-0.571498 -0.952497,-0.571498 -0.285749,0 -0.412748,0.0635 0.412748,-1.05833 1.396995,-1.05833 0.761998,0 1.28058,0.645581 0.476248,0.603248 0.476248,1.386412 z"
         style="font-style:normal;font-variant:normal;font-weight:normal;font-stretch:normal;font-family:Klarissa;-inkscape-font-specification:Klarissa;fill:#936abe;fill-opacity:1"
         id="path1004" />
      <path
         d="m 69.272165,55.748406 h -3.661822 v 0.878414 q 0,0.603248 0.380999,1.079496 0.412749,0.507999 1.005414,0.507999 1.142996,0 1.142996,-1.05833 0,-0.571499 -0.476248,-0.719665 0.169332,-0.201082 0.465665,-0.201082 0.89958,0 0.89958,0.973663 0,1.449912 -2.412992,1.449912 -1.344079,0 -2.14841,-0.793747 -0.825497,-0.804331 -0.825497,-2.11666 0,-1.238246 0.783164,-2.08491 0.793747,-0.846664 2.031993,-0.846664 0.677332,0 1.195913,0.201082 0.529165,0.201083 0.888997,0.582082 0.359833,0.380999 0.539749,0.93133 0.190499,0.539749 0.190499,1.21708 z m -2.095493,-0.455082 v -0.687915 q 0,-1.259412 -0.719665,-1.259412 -0.846664,0 -0.846664,1.185329 v 0.761998 z"
         style="font-style:normal;font-variant:normal;font-weight:normal;font-stretch:normal;font-family:Klarissa;-inkscape-font-specification:Klarissa;fill:#936abe;fill-opacity:1"
         id="path1006" />
      <path
         d="m 75.36813,55.748406 q 0,1.227662 -0.677332,1.968493 -0.698497,0.793748 -1.89441,0.793748 h -3.122074 q 0.328083,-0.253999 0.328083,-0.666748 v -6.074814 q 0,-0.402165 -0.328083,-0.666748 l 2.127244,0.01058 v 2.529409 q 0.529165,-0.783164 1.471078,-0.783164 1.079497,0 1.640412,0.952497 0.455082,0.772581 0.455082,1.936744 z m -1.989661,1.238246 v -2.455326 q 0,-0.86783 -0.709081,-0.86783 -0.539748,0 -0.86783,0.761997 v 3.545406 h 0.370415 q 0.455082,0 0.825498,-0.275166 0.380998,-0.264583 0.380998,-0.709081 z"
         style="font-style:normal;font-variant:normal;font-weight:normal;font-stretch:normal;font-family:Klarissa;-inkscape-font-specification:Klarissa;fill:#936abe;fill-opacity:1"
         id="path1008" />
    </g>
    <g
       aria-label="APODWeb"
       transform="translate(0.34371471,0.34187686)"
       id="text833-6"
       style="font-style:normal;font-weight:normal;font-size:10.5833px;line-height:1.25;font-family:sans-serif;letter-spacing:0px;word-spacing:0px;white-space:pre;shape-inside:url(#rect835-3);fill:#dd5a8e;fill-opacity:1;stroke:none">
      <path
         d="m 30.018774,58.510647 h -2.666992 q 0.211666,-0.15875 0.211666,-0.455082 0,-0.116416 -0.03175,-0.211666 L 27.108366,56.53157 q -0.296332,0.190499 -0.465665,0.264582 -0.349249,0.15875 -0.677331,0.15875 -0.201083,0 -0.592665,-0.09525 -0.349249,-0.105833 -0.582081,-0.105833 -0.529165,0 -0.666748,0.455082 L 23.986293,57.6534 q -0.02117,0.105833 -0.02117,0.137583 0,0.338665 0.507999,0.719664 h -1.735661 q 0.592664,-0.486832 0.709081,-0.857247 l 2.02141,-6.551063 h 1.883827 l 2.190743,6.741562 q 0.127,0.380999 0.476249,0.666748 z M 26.8967,55.885989 25.711371,52.128917 24.420208,56.245821 q 0.359832,-0.253999 0.857247,-0.253999 0.08467,0 0.179917,0.02117 0.105833,0.01058 0.222249,0.03175 0.518582,0.127 0.656164,0.127 0.275166,0 0.560915,-0.285749 z"
         style="font-style:normal;font-variant:normal;font-weight:normal;font-stretch:normal;font-family:Klarissa;-inkscape-font-specification:Klarissa;fill:#dd5a8e;fill-opacity:1"
         id="path1011" />
      <path
         d="m 37.067237,52.689832 q 0,0.920747 -0.96308,1.375829 -0.02117,0.01058 -0.518582,0.169333 -0.497415,0.158749 -1.460495,0.465665 -1.227663,0.391582 -1.650995,1.02658 v 2.11666 q 0,0.402165 0.328082,0.666748 h -2.666991 q 0.328082,-0.253999 0.328082,-0.666748 v -6.074814 q 0,-0.402165 -0.328082,-0.666748 h 4.635485 q 1.12183,0 1.555745,0.1905 0.740831,0.328082 0.740831,1.396995 z m -2.434159,0 q 0,-0.571498 -0.391582,-0.86783 -0.328082,-0.296333 -0.920747,-0.296333 h -0.846664 v 3.460739 q 0.09525,-0.09525 1.280579,-0.952497 0.878414,-0.634998 0.878414,-1.344079 z"
         style="font-style:normal;font-variant:normal;font-weight:normal;font-stretch:normal;font-family:Klarissa;-inkscape-font-specification:Klarissa;fill:#dd5a8e;fill-opacity:1"
         id="path1013" />
      <path
         d="m 44.708368,54.827659 q 0,1.640411 -0.99483,2.730491 -1.02658,1.12183 -2.645825,1.12183 -1.619244,0 -2.645825,-1.12183 -0.973663,-1.100663 -0.973663,-2.730491 0,-1.629828 0.99483,-2.719908 1.02658,-1.15358 2.624658,-1.15358 1.608662,0 2.645825,1.132413 0.99483,1.09008 0.99483,2.741075 z m -2.285992,1.756827 v -3.513655 q 0,-0.719664 -0.285749,-1.164163 -0.338666,-0.529165 -1.02658,-0.529165 -1.354663,0 -1.354663,1.693328 v 3.513655 q 0,1.693328 1.354663,1.693328 1.312329,0 1.312329,-1.693328 z"
         style="font-style:normal;font-variant:normal;font-weight:normal;font-stretch:normal;font-family:Klarissa;-inkscape-font-specification:Klarissa;fill:#dd5a8e;fill-opacity:1"
         id="path1015" />
      <path
         d="m 52.455326,54.912325 q 0,0.857247 -0.253999,1.534579 -0.253999,0.666747 -0.730248,1.132413 -0.476248,0.455081 -1.164163,0.698497 -0.687914,0.232833 -1.545161,0.232833 h -3.619489 q 0.328082,-0.253999 0.328082,-0.666748 v -6.074814 q 0,-0.402165 -0.328082,-0.666748 h 3.598322 q 1.746245,0 2.730491,1.02658 0.984247,1.015997 0.984247,2.783408 z m -2.264826,0 q 0,-3.376073 -1.883827,-3.376073 h -0.836081 l 0.01058,6.529896 h 0.793748 q 1.05833,0 1.545162,-1.121829 0.370415,-0.857248 0.370415,-2.031994 z"
         style="font-style:normal;font-variant:normal;font-weight:normal;font-stretch:normal;font-family:Klarissa;-inkscape-font-specification:Klarissa;fill:#dd5a8e;fill-opacity:1"
         id="path1017" />
      <path
         d="m 63.049204,52.901498 q 0,0.624415 -0.592665,1.756828 -0.243416,0.423332 -0.486832,0.836081 -0.232832,0.412748 -0.476248,0.83608 -0.550332,0.96308 -0.550332,1.608662 0,0.338665 0.296333,0.571498 h -2.666992 q 0.264583,-0.190499 0.264583,-0.518582 0,-0.04233 -0.01058,-0.07408 0,-0.03175 -0.01058,-0.07408 l -0.846664,-2.910407 -0.941913,2.92099 q 0,0.380999 0.338665,0.656165 h -2.666991 q 0.264582,-0.190499 0.264582,-0.518582 0,-0.04233 -0.01058,-0.07408 0,-0.03175 -0.01058,-0.07408 l -1.767412,-6.074814 q -0.126999,-0.423332 -0.412748,-0.666748 h 2.677575 q -0.243416,0.1905 -0.243416,0.497415 0,0.08467 0.02117,0.169333 l 1.502829,5.460983 0.99483,-3.164407 -0.666748,-2.296576 q -0.126999,-0.423332 -0.433915,-0.666748 h 2.698741 q -0.253999,0.211666 -0.253999,0.497415 0,0.09525 0.03175,0.169333 l 1.471079,5.344566 q 0.05292,-0.211666 0.201082,-0.645581 0.148167,-0.433915 0.412749,-1.09008 0.380999,-0.96308 0.380999,-1.820327 0,-0.634998 -0.296333,-1.12183 -0.370415,-0.571498 -0.952497,-0.571498 -0.285749,0 -0.412748,0.0635 0.412748,-1.05833 1.396995,-1.05833 0.761998,0 1.28058,0.645581 0.476248,0.603248 0.476248,1.386412 z"
         style="font-style:normal;font-variant:normal;font-weight:normal;font-stretch:normal;font-family:Klarissa;-inkscape-font-specification:Klarissa;fill:#dd5a8e;fill-opacity:1"
         id="path1019" />
      <path
         d="m 69.272165,55.748406 h -3.661822 v 0.878414 q 0,0.603248 0.380999,1.079496 0.412749,0.507999 1.005414,0.507999 1.142996,0 1.142996,-1.05833 0,-0.571499 -0.476248,-0.719665 0.169332,-0.201082 0.465665,-0.201082 0.89958,0 0.89958,0.973663 0,1.449912 -2.412992,1.449912 -1.344079,0 -2.14841,-0.793747 -0.825497,-0.804331 -0.825497,-2.11666 0,-1.238246 0.783164,-2.08491 0.793747,-0.846664 2.031993,-0.846664 0.677332,0 1.195913,0.201082 0.529165,0.201083 0.888997,0.582082 0.359833,0.380999 0.539749,0.93133 0.190499,0.539749 0.190499,1.21708 z m -2.095493,-0.455082 v -0.687915 q 0,-1.259412 -0.719665,-1.259412 -0.846664,0 -0.846664,1.185329 v 0.761998 z"
         style="font-style:normal;font-variant:normal;font-weight:normal;font-stretch:normal;font-family:Klarissa;-inkscape-font-specification:Klarissa;fill:#dd5a8e;fill-opacity:1"
         id="path1021" />
      <path
         d="m 75.36813,55.748406 q 0,1.227662 -0.677332,1.968493 -0.698497,0.793748 -1.89441,0.793748 h -3.122074 q 0.328083,-0.253999 0.328083,-0.666748 v -6.074814 q 0,-0.402165 -0.328083,-0.666748 l 2.127244,0.01058 v 2.529409 q 0.529165,-0.783164 1.471078,-0.783164 1.079497,0 1.640412,0.952497 0.455082,0.772581 0.455082,1.936744 z m -1.989661,1.238246 v -2.455326 q 0,-0.86783 -0.709081,-0.86783 -0.539748,0 -0.86783,0.761997 v 3.545406 h 0.370415 q 0.455082,0 0.825498,-0.275166 0.380998,-0.264583 0.380998,-0.709081 z"
         style="font-style:normal;font-variant:normal;font-weight:normal;font-stretch:normal;font-family:Klarissa;-inkscape-font-specification:Klarissa;fill:#dd5a8e;fill-opacity:1"
         id="path1023" />
    </g>
    <g
       aria-label="APODWeb"
       id="text833"
       style="font-style:normal;font-weight:normal;font-size:10.5833px;line-height:1.25;font-family:sans-serif;letter-spacing:0px;word-spacing:0px;white-space:pre;shape-inside:url(#rect835);fill:#ffffff;fill-opacity:1;stroke:none">
      <path
         d="m 30.018774,58.510647 h -2.666992 q 0.211666,-0.15875 0.211666,-0.455082 0,-0.116416 -0.03175,-0.211666 L 27.108366,56.53157 q -0.296332,0.190499 -0.465665,0.264582 -0.349249,0.15875 -0.677331,0.15875 -0.201083,0 -0.592665,-0.09525 -0.349249,-0.105833 -0.582081,-0.105833 -0.529165,0 -0.666748,0.455082 L 23.986293,57.6534 q -0.02117,0.105833 -0.02117,0.137583 0,0.338665 0.507999,0.719664 h -1.735661 q 0.592664,-0.486832 0.709081,-0.857247 l 2.02141,-6.551063 h 1.883827 l 2.190743,6.741562 q 0.127,0.380999 0.476249,0.666748 z M 26.8967,55.885989 25.711371,52.128917 24.420208,56.245821 q 0.359832,-0.253999 0.857247,-0.253999 0.08467,0 0.179917,0.02117 0.105833,0.01058 0.222249,0.03175 0.518582,0.127 0.656164,0.127 0.275166,0 0.560915,-0.285749 z"
         style="font-style:normal;font-variant:normal;font-weight:normal;font-stretch:normal;font-family:Klarissa;-inkscape-font-specification:Klarissa;fill:#ffffff"
         id="path1026" />
      <path
         d="m 37.067237,52.689832 q 0,0.920747 -0.96308,1.375829 -0.02117,0.01058 -0.518582,0.169333 -0.497415,0.158749 -1.460495,0.465665 -1.227663,0.391582 -1.650995,1.02658 v 2.11666 q 0,0.402165 0.328082,0.666748 h -2.666991 q 0.328082,-0.253999 0.328082,-0.666748 v -6.074814 q 0,-0.402165 -0.328082,-0.666748 h 4.635485 q 1.12183,0 1.555745,0.1905 0.740831,0.328082 0.740831,1.396995 z m -2.434159,0 q 0,-0.571498 -0.391582,-0.86783 -0.328082,-0.296333 -0.920747,-0.296333 h -0.846664 v 3.460739 q 0.09525,-0.09525 1.280579,-0.952497 0.878414,-0.634998 0.878414,-1.344079 z"
         style="font-style:normal;font-variant:normal;font-weight:normal;font-stretch:normal;font-family:Klarissa;-inkscape-font-specification:Klarissa;fill:#ffffff"
         id="path1028" />
      <path
         d="m 44.708368,54.827659 q 0,1.640411 -0.99483,2.730491 -1.02658,1.12183 -2.645825,1.12183 -1.619244,0 -2.645825,-1.12183 -0.973663,-1.100663 -0.973663,-2.730491 0,-1.629828 0.99483,-2.719908 1.02658,-1.15358 2.624658,-1.15358 1.608662,0 2.645825,1.132413 0.99483,1.09008 0.99483,2.741075 z m -2.285992,1.756827 v -3.513655 q 0,-0.719664 -0.285749,-1.164163 -0.338666,-0.529165 -1.02658,-0.529165 -1.354663,0 -1.354663,1.693328 v 3.513655 q 0,1.693328 1.354663,1.693328 1.312329,0 1.312329,-1.693328 z"
         style="font-style:normal;font-variant:normal;font-weight:normal;font-stretch:normal;font-family:Klarissa;-inkscape-font-specification:Klarissa;fill:#ffffff"
         id="path1030" />
      <path
         d="m 52.455326,54.912325 q 0,0.857247 -0.253999,1.534579 -0.253999,0.666747 -0.730248,1.132413 -0.476248,0.455081 -1.164163,0.698497 -0.687914,0.232833 -1.545161,0.232833 h -3.619489 q 0.328082,-0.253999 0.328082,-0.666748 v -6.074814 q 0,-0.402165 -0.328082,-0.666748 h 3.598322 q 1.746245,0 2.730491,1.02658 0.984247,1.015997 0.984247,2.783408 z m -2.264826,0 q 0,-3.376073 -1.883827,-3.376073 h -0.836081 l 0.01058,6.529896 h 0.793748 q 1.05833,0 1.545162,-1.121829 0.370415,-0.857248 0.370415,-2.031994 z"
         style="font-style:normal;font-variant:normal;font-weight:normal;font-stretch:normal;font-family:Klarissa;-inkscape-font-specification:Klarissa;fill:#ffffff"
         id="path1032" />
      <path
         d="m 63.049204,52.901498 q 0,0.624415 -0.592665,1.756828 -0.243416,0.423332 -0.486832,0.836081 -0.232832,0.412748 -0.476248,0.83608 -0.550332,0.96308 -0.550332,1.608662 0,0.338665 0.296333,0.571498 h -2.666992 q 0.264583,-0.190499 0.264583,-0.518582 0,-0.04233 -0.01058,-0.07408 0,-0.03175 -0.01058,-0.07408 l -0.846664,-2.910407 -0.941913,2.92099 q 0,0.380999 0.338665,0.656165 h -2.666991 q 0.264582,-0.190499 0.264582,-0.518582 0,-0.04233 -0.01058,-0.07408 0,-0.03175 -0.01058,-0.07408 l -1.767412,-6.074814 q -0.126999,-0.423332 -0.412748,-0.666748 h 2.677575 q -0.243416,0.1905 -0.243416,0.497415 0,0.08467 0.02117,0.169333 l 1.502829,5.460983 0.99483,-3.164407 -0.666748,-2.296576 q -0.126999,-0.423332 -0.433915,-0.666748 h 2.698741 q -0.253999,0.211666 -0.253999,0.497415 0,0.09525 0.03175,0.169333 l 1.471079,5.344566 q 0.05292,-0.211666 0.201082,-0.645581 0.148167,-0.433915 0.412749,-1.09008 0.380999,-0.96308 0.380999,-1.820327 0,-0.634998 -0.296333,-1.12183 -0.370415,-0.571498 -0.952497,-0.571498 -0.285749,0 -0.412748,0.0635 0.412748,-1.05833 1.396995,-1.05833 0.761998,0 1.28058,0.645581 0.476248,0.603248 0.476248,1.386412 z"
         style="font-style:normal;font-variant:normal;font-weight:normal;font-stretch:normal;font-family:Klarissa;-inkscape-font-specification:Klarissa;fill:#ffffff"
         id="path1034" />
      <path
         d="m 69.272165,55.748406 h -3.661822 v 0.878414 q 0,0.603248 0.380999,1.079496 0.412749,0.507999 1.005414,0.507999 1.142996,0 1.142996,-1.05833 0,-0.571499 -0.476248,-0.719665 0.169332,-0.201082 0.465665,-0.201082 0.89958,0 0.89958,0.973663 0,1.449912 -2.412992,1.449912 -1.344079,0 -2.14841,-0.793747 -0.825497,-0.804331 -0.825497,-2.11666 0,-1.238246 0.783164,-2.08491 0.793747,-0.846664 2.031993,-0.846664 0.677332,0 1.195913,0.201082 0.529165,0.201083 0.888997,0.582082 0.359833,0.380999 0.539749,0.93133 0.190499,0.539749 0.190499,1.21708 z m -2.095493,-0.455082 v -0.687915 q 0,-1.259412 -0.719665,-1.259412 -0.846664,0 -0.846664,1.185329 v 0.761998 z"
         style="font-style:normal;font-variant:normal;font-weight:normal;font-stretch:normal;font-family:Klarissa;-inkscape-font-specification:Klarissa;fill:#ffffff"
         id="path1036" />
      <path
         d="m 75.36813,55.748406 q 0,1.227662 -0.677332,1.968493 -0.698497,0.793748 -1.89441,0.793748 h -3.122074 q 0.328083,-0.253999 0.328083,-0.666748 v -6.074814 q 0,-0.402165 -0.328083,-0.666748 l 2.127244,0.01058 v 2.529409 q 0.529165,-0.783164 1.471078,-0.783164 1.079497,0 1.640412,0.952497 0.455082,0.772581 0.455082,1.936744 z m -1.989661,1.238246 v -2.455326 q 0,-0.86783 -0.709081,-0.86783 -0.539748,0 -0.86783,0.761997 v 3.545406 h 0.370415 q 0.455082,0 0.825498,-0.275166 0.380998,-0.264583 0.380998,-0.709081 z"
         style="font-style:normal;font-variant:normal;font-weight:normal;font-stretch:normal;font-family:Klarissa;-inkscape-font-specification:Klarissa;fill:#ffffff"
         id="path1038" />
    </g>
  </g>
</svg>
